<mxfile host="65bd71144e">
    <diagram id="C5RBs43oDa-KdzZeNtuy" name="Page-1">
        <mxGraphModel dx="1517" dy="520" grid="0" gridSize="10" guides="1" tooltips="1" connect="1" arrows="1" fold="1" page="0" pageScale="1" pageWidth="827" pageHeight="1169" background="none" math="0" shadow="0">
            <root>
                <mxCell id="WIyWlLk6GJQsqaUBKTNV-0"/>
                <mxCell id="WIyWlLk6GJQsqaUBKTNV-1" parent="WIyWlLk6GJQsqaUBKTNV-0"/>
                <mxCell id="RzslzzdEL0J-uvtyFlGG-3" value="" style="edgeStyle=orthogonalEdgeStyle;rounded=1;orthogonalLoop=1;jettySize=auto;html=1;labelBackgroundColor=none;strokeColor=#0B4D6A;fontColor=default;" parent="WIyWlLk6GJQsqaUBKTNV-1" source="RzslzzdEL0J-uvtyFlGG-1" target="RzslzzdEL0J-uvtyFlGG-2" edge="1">
                    <mxGeometry relative="1" as="geometry"/>
                </mxCell>
                <mxCell id="RzslzzdEL0J-uvtyFlGG-1" value="Page Load" style="ellipse;whiteSpace=wrap;html=1;fontSize=16;labelBackgroundColor=none;fillColor=#09555B;strokeColor=#BAC8D3;fontColor=#EEEEEE;rounded=1;" parent="WIyWlLk6GJQsqaUBKTNV-1" vertex="1">
                    <mxGeometry x="-827" y="390" width="103" height="80" as="geometry"/>
                </mxCell>
                <mxCell id="RzslzzdEL0J-uvtyFlGG-100" value="" style="edgeStyle=orthogonalEdgeStyle;rounded=1;orthogonalLoop=1;jettySize=auto;html=1;startArrow=none;labelBackgroundColor=none;strokeColor=#0B4D6A;fontColor=default;" parent="WIyWlLk6GJQsqaUBKTNV-1" source="RzslzzdEL0J-uvtyFlGG-10" target="RzslzzdEL0J-uvtyFlGG-4" edge="1">
                    <mxGeometry relative="1" as="geometry"/>
                </mxCell>
                <mxCell id="RzslzzdEL0J-uvtyFlGG-2" value="Check if User is logged in" style="rounded=1;whiteSpace=wrap;html=1;labelBackgroundColor=none;fillColor=#09555B;strokeColor=#BAC8D3;fontColor=#EEEEEE;" parent="WIyWlLk6GJQsqaUBKTNV-1" vertex="1">
                    <mxGeometry x="-694" y="400" width="114" height="60" as="geometry"/>
                </mxCell>
                <mxCell id="RzslzzdEL0J-uvtyFlGG-50" value="" style="edgeStyle=orthogonalEdgeStyle;rounded=1;orthogonalLoop=1;jettySize=auto;html=1;labelBackgroundColor=none;strokeColor=#0B4D6A;fontColor=default;" parent="WIyWlLk6GJQsqaUBKTNV-1" source="RzslzzdEL0J-uvtyFlGG-4" target="RzslzzdEL0J-uvtyFlGG-45" edge="1">
                    <mxGeometry relative="1" as="geometry"/>
                </mxCell>
                <mxCell id="RzslzzdEL0J-uvtyFlGG-4" value="Show User UI" style="whiteSpace=wrap;html=1;rounded=1;labelBackgroundColor=none;fillColor=#09555B;strokeColor=#BAC8D3;fontColor=#EEEEEE;" parent="WIyWlLk6GJQsqaUBKTNV-1" vertex="1">
                    <mxGeometry x="-487" y="400" width="120" height="60" as="geometry"/>
                </mxCell>
                <mxCell id="RzslzzdEL0J-uvtyFlGG-14" value="" style="edgeStyle=orthogonalEdgeStyle;rounded=1;orthogonalLoop=1;jettySize=auto;html=1;entryX=0;entryY=0.5;entryDx=0;entryDy=0;labelBackgroundColor=none;strokeColor=#0B4D6A;fontColor=default;" parent="WIyWlLk6GJQsqaUBKTNV-1" source="RzslzzdEL0J-uvtyFlGG-8" target="RzslzzdEL0J-uvtyFlGG-13" edge="1">
                    <mxGeometry relative="1" as="geometry"/>
                </mxCell>
                <mxCell id="RzslzzdEL0J-uvtyFlGG-8" value="Show Visitor UI with carosel" style="rounded=1;whiteSpace=wrap;html=1;labelBackgroundColor=none;fillColor=#09555B;strokeColor=#BAC8D3;fontColor=#EEEEEE;" parent="WIyWlLk6GJQsqaUBKTNV-1" vertex="1">
                    <mxGeometry x="-694" y="540" width="114" height="60" as="geometry"/>
                </mxCell>
                <mxCell id="RzslzzdEL0J-uvtyFlGG-94" value="" style="edgeStyle=orthogonalEdgeStyle;rounded=1;orthogonalLoop=1;jettySize=auto;html=1;entryX=0.5;entryY=1;entryDx=0;entryDy=0;startArrow=none;labelBackgroundColor=none;strokeColor=#0B4D6A;fontColor=default;" parent="WIyWlLk6GJQsqaUBKTNV-1" source="RzslzzdEL0J-uvtyFlGG-16" target="RzslzzdEL0J-uvtyFlGG-4" edge="1">
                    <mxGeometry relative="1" as="geometry"/>
                </mxCell>
                <mxCell id="RzslzzdEL0J-uvtyFlGG-13" value="&lt;div&gt;Visitor creates an account&lt;/div&gt;" style="ellipse;whiteSpace=wrap;html=1;rounded=1;labelBackgroundColor=none;fillColor=#09555B;strokeColor=#BAC8D3;fontColor=#EEEEEE;" parent="WIyWlLk6GJQsqaUBKTNV-1" vertex="1">
                    <mxGeometry x="-487" y="530" width="120" height="80" as="geometry"/>
                </mxCell>
                <mxCell id="RzslzzdEL0J-uvtyFlGG-21" value="" style="edgeStyle=orthogonalEdgeStyle;rounded=1;orthogonalLoop=1;jettySize=auto;html=1;exitX=0.5;exitY=0;exitDx=0;exitDy=0;labelBackgroundColor=none;strokeColor=#0B4D6A;fontColor=default;" parent="WIyWlLk6GJQsqaUBKTNV-1" source="RzslzzdEL0J-uvtyFlGG-17" target="RzslzzdEL0J-uvtyFlGG-20" edge="1">
                    <mxGeometry relative="1" as="geometry">
                        <mxPoint x="-60" y="330" as="sourcePoint"/>
                    </mxGeometry>
                </mxCell>
                <mxCell id="RzslzzdEL0J-uvtyFlGG-17" value="User create new template" style="ellipse;whiteSpace=wrap;html=1;rounded=1;labelBackgroundColor=none;fillColor=#09555B;strokeColor=#BAC8D3;fontColor=#EEEEEE;" parent="WIyWlLk6GJQsqaUBKTNV-1" vertex="1">
                    <mxGeometry x="-170" y="340" width="120" height="80" as="geometry"/>
                </mxCell>
                <mxCell id="RzslzzdEL0J-uvtyFlGG-104" style="edgeStyle=orthogonalEdgeStyle;rounded=1;orthogonalLoop=1;jettySize=auto;html=1;entryX=0.5;entryY=1;entryDx=0;entryDy=0;startArrow=none;exitX=0.5;exitY=0;exitDx=0;exitDy=0;labelBackgroundColor=none;strokeColor=#0B4D6A;fontColor=default;" parent="WIyWlLk6GJQsqaUBKTNV-1" source="RzslzzdEL0J-uvtyFlGG-28" target="RzslzzdEL0J-uvtyFlGG-29" edge="1">
                    <mxGeometry relative="1" as="geometry">
                        <Array as="points">
                            <mxPoint x="-180" y="210"/>
                            <mxPoint x="-180" y="180"/>
                        </Array>
                    </mxGeometry>
                </mxCell>
                <mxCell id="RzslzzdEL0J-uvtyFlGG-105" style="edgeStyle=orthogonalEdgeStyle;rounded=1;orthogonalLoop=1;jettySize=auto;html=1;entryX=0.5;entryY=1;entryDx=0;entryDy=0;startArrow=none;labelBackgroundColor=none;strokeColor=#0B4D6A;fontColor=default;" parent="WIyWlLk6GJQsqaUBKTNV-1" source="RzslzzdEL0J-uvtyFlGG-25" target="RzslzzdEL0J-uvtyFlGG-22" edge="1">
                    <mxGeometry relative="1" as="geometry"/>
                </mxCell>
                <mxCell id="RzslzzdEL0J-uvtyFlGG-20" value="Check if User did this before" style="whiteSpace=wrap;html=1;rounded=1;labelBackgroundColor=none;fillColor=#09555B;strokeColor=#BAC8D3;fontColor=#EEEEEE;" parent="WIyWlLk6GJQsqaUBKTNV-1" vertex="1">
                    <mxGeometry x="-170" y="260" width="120" height="60" as="geometry"/>
                </mxCell>
                <mxCell id="RzslzzdEL0J-uvtyFlGG-37" value="" style="edgeStyle=orthogonalEdgeStyle;rounded=1;orthogonalLoop=1;jettySize=auto;html=1;labelBackgroundColor=none;strokeColor=#0B4D6A;fontColor=default;" parent="WIyWlLk6GJQsqaUBKTNV-1" source="RzslzzdEL0J-uvtyFlGG-22" target="RzslzzdEL0J-uvtyFlGG-29" edge="1">
                    <mxGeometry relative="1" as="geometry"/>
                </mxCell>
                <mxCell id="RzslzzdEL0J-uvtyFlGG-22" value="Show popup windows " style="ellipse;whiteSpace=wrap;html=1;rounded=1;labelBackgroundColor=none;fillColor=#09555B;strokeColor=#BAC8D3;fontColor=#EEEEEE;" parent="WIyWlLk6GJQsqaUBKTNV-1" vertex="1">
                    <mxGeometry x="-94" y="85" width="87" height="90" as="geometry"/>
                </mxCell>
                <mxCell id="RzslzzdEL0J-uvtyFlGG-31" value="" style="edgeStyle=orthogonalEdgeStyle;rounded=1;orthogonalLoop=1;jettySize=auto;html=1;startArrow=none;labelBackgroundColor=none;strokeColor=#0B4D6A;fontColor=default;" parent="WIyWlLk6GJQsqaUBKTNV-1" source="RzslzzdEL0J-uvtyFlGG-33" target="RzslzzdEL0J-uvtyFlGG-30" edge="1">
                    <mxGeometry relative="1" as="geometry"/>
                </mxCell>
                <mxCell id="RzslzzdEL0J-uvtyFlGG-35" value="" style="edgeStyle=orthogonalEdgeStyle;rounded=1;orthogonalLoop=1;jettySize=auto;html=1;startArrow=none;labelBackgroundColor=none;strokeColor=#0B4D6A;fontColor=default;" parent="WIyWlLk6GJQsqaUBKTNV-1" source="RzslzzdEL0J-uvtyFlGG-36" target="RzslzzdEL0J-uvtyFlGG-34" edge="1">
                    <mxGeometry relative="1" as="geometry"/>
                </mxCell>
                <mxCell id="RzslzzdEL0J-uvtyFlGG-29" value="Ask him if he wants to generate or create a custom template" style="rounded=1;whiteSpace=wrap;html=1;labelBackgroundColor=none;fillColor=#09555B;strokeColor=#BAC8D3;fontColor=#EEEEEE;" parent="WIyWlLk6GJQsqaUBKTNV-1" vertex="1">
                    <mxGeometry x="-245.5" y="95" width="130" height="70" as="geometry"/>
                </mxCell>
                <mxCell id="RzslzzdEL0J-uvtyFlGG-39" value="" style="edgeStyle=orthogonalEdgeStyle;rounded=1;orthogonalLoop=1;jettySize=auto;html=1;labelBackgroundColor=none;strokeColor=#0B4D6A;fontColor=default;" parent="WIyWlLk6GJQsqaUBKTNV-1" source="RzslzzdEL0J-uvtyFlGG-30" target="RzslzzdEL0J-uvtyFlGG-38" edge="1">
                    <mxGeometry relative="1" as="geometry"/>
                </mxCell>
                <mxCell id="RzslzzdEL0J-uvtyFlGG-30" value="Start generation" style="ellipse;whiteSpace=wrap;html=1;rounded=1;labelBackgroundColor=none;fillColor=#09555B;strokeColor=#BAC8D3;fontColor=#EEEEEE;" parent="WIyWlLk6GJQsqaUBKTNV-1" vertex="1">
                    <mxGeometry x="-440" y="50" width="80" height="80" as="geometry"/>
                </mxCell>
                <mxCell id="RzslzzdEL0J-uvtyFlGG-40" value="" style="edgeStyle=orthogonalEdgeStyle;rounded=1;orthogonalLoop=1;jettySize=auto;html=1;labelBackgroundColor=none;strokeColor=#0B4D6A;fontColor=default;" parent="WIyWlLk6GJQsqaUBKTNV-1" source="RzslzzdEL0J-uvtyFlGG-34" target="RzslzzdEL0J-uvtyFlGG-38" edge="1">
                    <mxGeometry relative="1" as="geometry"/>
                </mxCell>
                <mxCell id="RzslzzdEL0J-uvtyFlGG-34" value="Start custom craetion" style="ellipse;whiteSpace=wrap;html=1;rounded=1;labelBackgroundColor=none;fillColor=#09555B;strokeColor=#BAC8D3;fontColor=#EEEEEE;" parent="WIyWlLk6GJQsqaUBKTNV-1" vertex="1">
                    <mxGeometry x="-440" y="140" width="80" height="80" as="geometry"/>
                </mxCell>
                <mxCell id="RzslzzdEL0J-uvtyFlGG-44" value="" style="edgeStyle=orthogonalEdgeStyle;rounded=1;orthogonalLoop=1;jettySize=auto;html=1;labelBackgroundColor=none;strokeColor=#0B4D6A;fontColor=default;" parent="WIyWlLk6GJQsqaUBKTNV-1" source="RzslzzdEL0J-uvtyFlGG-38" target="RzslzzdEL0J-uvtyFlGG-43" edge="1">
                    <mxGeometry relative="1" as="geometry"/>
                </mxCell>
                <mxCell id="RzslzzdEL0J-uvtyFlGG-38" value="Make tamplate" style="whiteSpace=wrap;html=1;rounded=1;labelBackgroundColor=none;fillColor=#09555B;strokeColor=#BAC8D3;fontColor=#EEEEEE;" parent="WIyWlLk6GJQsqaUBKTNV-1" vertex="1">
                    <mxGeometry x="-607" y="105" width="120" height="60" as="geometry"/>
                </mxCell>
                <mxCell id="RzslzzdEL0J-uvtyFlGG-55" value="" style="edgeStyle=orthogonalEdgeStyle;rounded=1;orthogonalLoop=1;jettySize=auto;html=1;startArrow=none;labelBackgroundColor=none;strokeColor=#0B4D6A;fontColor=default;" parent="WIyWlLk6GJQsqaUBKTNV-1" source="RzslzzdEL0J-uvtyFlGG-71" target="RzslzzdEL0J-uvtyFlGG-54" edge="1">
                    <mxGeometry relative="1" as="geometry">
                        <Array as="points">
                            <mxPoint x="-524" y="200"/>
                        </Array>
                    </mxGeometry>
                </mxCell>
                <mxCell id="RzslzzdEL0J-uvtyFlGG-43" value="Preview template" style="whiteSpace=wrap;html=1;rounded=1;labelBackgroundColor=none;fillColor=#09555B;strokeColor=#BAC8D3;fontColor=#EEEEEE;" parent="WIyWlLk6GJQsqaUBKTNV-1" vertex="1">
                    <mxGeometry x="-767" y="105" width="120" height="60" as="geometry"/>
                </mxCell>
                <mxCell id="RzslzzdEL0J-uvtyFlGG-109" value="" style="edgeStyle=orthogonalEdgeStyle;rounded=1;orthogonalLoop=1;jettySize=auto;html=1;labelBackgroundColor=none;strokeColor=#0B4D6A;fontColor=default;" parent="WIyWlLk6GJQsqaUBKTNV-1" source="RzslzzdEL0J-uvtyFlGG-45" target="RzslzzdEL0J-uvtyFlGG-64" edge="1">
                    <mxGeometry relative="1" as="geometry"/>
                </mxCell>
                <mxCell id="RzslzzdEL0J-uvtyFlGG-110" style="edgeStyle=orthogonalEdgeStyle;rounded=1;orthogonalLoop=1;jettySize=auto;html=1;entryX=-0.003;entryY=0.419;entryDx=0;entryDy=0;entryPerimeter=0;labelBackgroundColor=none;strokeColor=#0B4D6A;fontColor=default;" parent="WIyWlLk6GJQsqaUBKTNV-1" source="RzslzzdEL0J-uvtyFlGG-45" target="RzslzzdEL0J-uvtyFlGG-17" edge="1">
                    <mxGeometry relative="1" as="geometry">
                        <Array as="points">
                            <mxPoint x="-184" y="430"/>
                            <mxPoint x="-184" y="374"/>
                        </Array>
                    </mxGeometry>
                </mxCell>
                <mxCell id="RzslzzdEL0J-uvtyFlGG-45" value="Load saved User templates" style="whiteSpace=wrap;html=1;rounded=1;labelBackgroundColor=none;fillColor=#09555B;strokeColor=#BAC8D3;fontColor=#EEEEEE;" parent="WIyWlLk6GJQsqaUBKTNV-1" vertex="1">
                    <mxGeometry x="-324" y="400" width="120" height="60" as="geometry"/>
                </mxCell>
                <mxCell id="RzslzzdEL0J-uvtyFlGG-59" value="" style="edgeStyle=orthogonalEdgeStyle;rounded=1;orthogonalLoop=1;jettySize=auto;html=1;labelBackgroundColor=none;strokeColor=#0B4D6A;fontColor=default;" parent="WIyWlLk6GJQsqaUBKTNV-1" source="RzslzzdEL0J-uvtyFlGG-48" target="RzslzzdEL0J-uvtyFlGG-58" edge="1">
                    <mxGeometry relative="1" as="geometry"/>
                </mxCell>
                <mxCell id="RzslzzdEL0J-uvtyFlGG-48" value="Initiate payment" style="ellipse;whiteSpace=wrap;html=1;rounded=1;labelBackgroundColor=none;fillColor=#09555B;strokeColor=#BAC8D3;fontColor=#EEEEEE;" parent="WIyWlLk6GJQsqaUBKTNV-1" vertex="1">
                    <mxGeometry x="-815.5" y="270" width="80" height="80" as="geometry"/>
                </mxCell>
                <mxCell id="RzslzzdEL0J-uvtyFlGG-57" style="edgeStyle=orthogonalEdgeStyle;rounded=1;orthogonalLoop=1;jettySize=auto;html=1;entryX=0.5;entryY=0;entryDx=0;entryDy=0;exitX=0.5;exitY=1;exitDx=0;exitDy=0;labelBackgroundColor=none;strokeColor=#0B4D6A;fontColor=default;" parent="WIyWlLk6GJQsqaUBKTNV-1" source="RzslzzdEL0J-uvtyFlGG-54" target="RzslzzdEL0J-uvtyFlGG-4" edge="1">
                    <mxGeometry relative="1" as="geometry">
                        <Array as="points">
                            <mxPoint x="-427" y="370"/>
                            <mxPoint x="-427" y="370"/>
                        </Array>
                    </mxGeometry>
                </mxCell>
                <mxCell id="RzslzzdEL0J-uvtyFlGG-54" value="Go back to template collection" style="ellipse;whiteSpace=wrap;html=1;rounded=1;labelBackgroundColor=none;fillColor=#09555B;strokeColor=#BAC8D3;fontColor=#EEEEEE;" parent="WIyWlLk6GJQsqaUBKTNV-1" vertex="1">
                    <mxGeometry x="-467" y="270" width="80" height="80" as="geometry"/>
                </mxCell>
                <mxCell id="RzslzzdEL0J-uvtyFlGG-60" value="" style="edgeStyle=orthogonalEdgeStyle;rounded=1;orthogonalLoop=1;jettySize=auto;html=1;labelBackgroundColor=none;strokeColor=#0B4D6A;fontColor=default;" parent="WIyWlLk6GJQsqaUBKTNV-1" source="RzslzzdEL0J-uvtyFlGG-58" target="RzslzzdEL0J-uvtyFlGG-54" edge="1">
                    <mxGeometry relative="1" as="geometry"/>
                </mxCell>
                <mxCell id="RzslzzdEL0J-uvtyFlGG-58" value="Make storage unlimited" style="whiteSpace=wrap;html=1;rounded=1;labelBackgroundColor=none;fillColor=#09555B;strokeColor=#BAC8D3;fontColor=#EEEEEE;" parent="WIyWlLk6GJQsqaUBKTNV-1" vertex="1">
                    <mxGeometry x="-680" y="280" width="120" height="60" as="geometry"/>
                </mxCell>
                <mxCell id="RzslzzdEL0J-uvtyFlGG-66" value="" style="edgeStyle=orthogonalEdgeStyle;rounded=1;orthogonalLoop=1;jettySize=auto;html=1;labelBackgroundColor=none;strokeColor=#0B4D6A;fontColor=default;" parent="WIyWlLk6GJQsqaUBKTNV-1" source="RzslzzdEL0J-uvtyFlGG-64" target="RzslzzdEL0J-uvtyFlGG-65" edge="1">
                    <mxGeometry relative="1" as="geometry"/>
                </mxCell>
                <mxCell id="RzslzzdEL0J-uvtyFlGG-68" value="" style="edgeStyle=orthogonalEdgeStyle;rounded=1;orthogonalLoop=1;jettySize=auto;html=1;labelBackgroundColor=none;strokeColor=#0B4D6A;fontColor=default;" parent="WIyWlLk6GJQsqaUBKTNV-1" source="RzslzzdEL0J-uvtyFlGG-65" target="RzslzzdEL0J-uvtyFlGG-67" edge="1">
                    <mxGeometry relative="1" as="geometry"/>
                </mxCell>
                <mxCell id="RzslzzdEL0J-uvtyFlGG-65" value="User is done" style="whiteSpace=wrap;html=1;labelBackgroundColor=none;fillColor=#09555B;strokeColor=#BAC8D3;fontColor=#EEEEEE;rounded=1;" parent="WIyWlLk6GJQsqaUBKTNV-1" vertex="1">
                    <mxGeometry x="-170" y="540" width="120" height="60" as="geometry"/>
                </mxCell>
                <mxCell id="RzslzzdEL0J-uvtyFlGG-70" value="" style="edgeStyle=orthogonalEdgeStyle;rounded=1;orthogonalLoop=1;jettySize=auto;html=1;labelBackgroundColor=none;strokeColor=#0B4D6A;fontColor=default;" parent="WIyWlLk6GJQsqaUBKTNV-1" source="RzslzzdEL0J-uvtyFlGG-67" target="RzslzzdEL0J-uvtyFlGG-45" edge="1">
                    <mxGeometry relative="1" as="geometry"/>
                </mxCell>
                <mxCell id="RzslzzdEL0J-uvtyFlGG-67" value="Save modifications" style="ellipse;whiteSpace=wrap;html=1;labelBackgroundColor=none;fillColor=#09555B;strokeColor=#BAC8D3;fontColor=#EEEEEE;rounded=1;" parent="WIyWlLk6GJQsqaUBKTNV-1" vertex="1">
                    <mxGeometry x="-311" y="530" width="94" height="80" as="geometry"/>
                </mxCell>
                <mxCell id="RzslzzdEL0J-uvtyFlGG-72" value="" style="edgeStyle=orthogonalEdgeStyle;rounded=1;orthogonalLoop=1;jettySize=auto;html=1;endArrow=none;labelBackgroundColor=none;strokeColor=#0B4D6A;fontColor=default;" parent="WIyWlLk6GJQsqaUBKTNV-1" source="RzslzzdEL0J-uvtyFlGG-43" target="RzslzzdEL0J-uvtyFlGG-71" edge="1">
                    <mxGeometry relative="1" as="geometry">
                        <mxPoint x="-707" y="165" as="sourcePoint"/>
                        <mxPoint x="-524" y="220" as="targetPoint"/>
                        <Array as="points">
                            <mxPoint x="-707" y="200"/>
                        </Array>
                    </mxGeometry>
                </mxCell>
                <mxCell id="RzslzzdEL0J-uvtyFlGG-71" value="Go Back" style="text;html=1;strokeColor=none;fillColor=none;align=center;verticalAlign=middle;whiteSpace=wrap;rounded=1;labelBackgroundColor=none;fontColor=#EEEEEE;" parent="WIyWlLk6GJQsqaUBKTNV-1" vertex="1">
                    <mxGeometry x="-660" y="185" width="60" height="30" as="geometry"/>
                </mxCell>
                <mxCell id="RzslzzdEL0J-uvtyFlGG-75" value="" style="edgeStyle=orthogonalEdgeStyle;rounded=1;orthogonalLoop=1;jettySize=auto;html=1;endArrow=none;labelBackgroundColor=none;strokeColor=#0B4D6A;fontColor=default;" parent="WIyWlLk6GJQsqaUBKTNV-1" source="RzslzzdEL0J-uvtyFlGG-43" target="RzslzzdEL0J-uvtyFlGG-53" edge="1">
                    <mxGeometry relative="1" as="geometry">
                        <mxPoint x="-707" y="165" as="sourcePoint"/>
                        <mxPoint x="-787" y="220" as="targetPoint"/>
                        <Array as="points">
                            <mxPoint x="-707" y="200"/>
                        </Array>
                    </mxGeometry>
                </mxCell>
                <mxCell id="RzslzzdEL0J-uvtyFlGG-76" style="edgeStyle=orthogonalEdgeStyle;rounded=1;orthogonalLoop=1;jettySize=auto;html=1;entryX=0.5;entryY=0;entryDx=0;entryDy=0;labelBackgroundColor=none;strokeColor=#0B4D6A;fontColor=default;" parent="WIyWlLk6GJQsqaUBKTNV-1" source="RzslzzdEL0J-uvtyFlGG-53" target="RzslzzdEL0J-uvtyFlGG-48" edge="1">
                    <mxGeometry relative="1" as="geometry"/>
                </mxCell>
                <mxCell id="RzslzzdEL0J-uvtyFlGG-53" value="Download" style="text;html=1;strokeColor=none;fillColor=none;align=center;verticalAlign=middle;whiteSpace=wrap;rounded=1;labelBackgroundColor=none;fontColor=#EEEEEE;" parent="WIyWlLk6GJQsqaUBKTNV-1" vertex="1">
                    <mxGeometry x="-805.5" y="210" width="60" height="30" as="geometry"/>
                </mxCell>
                <mxCell id="RzslzzdEL0J-uvtyFlGG-78" value="" style="edgeStyle=orthogonalEdgeStyle;rounded=1;orthogonalLoop=1;jettySize=auto;html=1;endArrow=none;labelBackgroundColor=none;strokeColor=#0B4D6A;fontColor=default;" parent="WIyWlLk6GJQsqaUBKTNV-1" source="RzslzzdEL0J-uvtyFlGG-29" target="RzslzzdEL0J-uvtyFlGG-33" edge="1">
                    <mxGeometry relative="1" as="geometry">
                        <mxPoint x="-267" y="130" as="sourcePoint"/>
                        <mxPoint x="-347" y="90" as="targetPoint"/>
                    </mxGeometry>
                </mxCell>
                <mxCell id="RzslzzdEL0J-uvtyFlGG-33" value="Generate" style="text;html=1;strokeColor=none;fillColor=none;align=center;verticalAlign=middle;whiteSpace=wrap;rounded=1;labelBackgroundColor=none;fontColor=#EEEEEE;" parent="WIyWlLk6GJQsqaUBKTNV-1" vertex="1">
                    <mxGeometry x="-337" y="75" width="60" height="30" as="geometry"/>
                </mxCell>
                <mxCell id="RzslzzdEL0J-uvtyFlGG-79" style="edgeStyle=orthogonalEdgeStyle;rounded=1;orthogonalLoop=1;jettySize=auto;html=1;exitX=0.5;exitY=1;exitDx=0;exitDy=0;labelBackgroundColor=none;strokeColor=#0B4D6A;fontColor=default;" parent="WIyWlLk6GJQsqaUBKTNV-1" source="RzslzzdEL0J-uvtyFlGG-33" target="RzslzzdEL0J-uvtyFlGG-33" edge="1">
                    <mxGeometry relative="1" as="geometry"/>
                </mxCell>
                <mxCell id="RzslzzdEL0J-uvtyFlGG-80" value="" style="edgeStyle=orthogonalEdgeStyle;rounded=1;orthogonalLoop=1;jettySize=auto;html=1;endArrow=none;labelBackgroundColor=none;strokeColor=#0B4D6A;fontColor=default;" parent="WIyWlLk6GJQsqaUBKTNV-1" source="RzslzzdEL0J-uvtyFlGG-29" target="RzslzzdEL0J-uvtyFlGG-36" edge="1">
                    <mxGeometry relative="1" as="geometry">
                        <mxPoint x="-245" y="130" as="sourcePoint"/>
                        <mxPoint x="-360" y="180" as="targetPoint"/>
                    </mxGeometry>
                </mxCell>
                <mxCell id="RzslzzdEL0J-uvtyFlGG-36" value="Custom creation" style="text;html=1;strokeColor=none;fillColor=none;align=center;verticalAlign=middle;whiteSpace=wrap;rounded=1;labelBackgroundColor=none;fontColor=#EEEEEE;" parent="WIyWlLk6GJQsqaUBKTNV-1" vertex="1">
                    <mxGeometry x="-340" y="165" width="60" height="30" as="geometry"/>
                </mxCell>
                <mxCell id="RzslzzdEL0J-uvtyFlGG-89" value="" style="edgeStyle=orthogonalEdgeStyle;rounded=1;orthogonalLoop=1;jettySize=auto;html=1;exitX=0.5;exitY=1;exitDx=0;exitDy=0;endArrow=none;labelBackgroundColor=none;strokeColor=#0B4D6A;fontColor=default;" parent="WIyWlLk6GJQsqaUBKTNV-1" source="RzslzzdEL0J-uvtyFlGG-2" target="RzslzzdEL0J-uvtyFlGG-7" edge="1">
                    <mxGeometry relative="1" as="geometry">
                        <mxPoint x="-637" y="460" as="sourcePoint"/>
                        <mxPoint x="-634" y="510" as="targetPoint"/>
                        <Array as="points"/>
                    </mxGeometry>
                </mxCell>
                <mxCell id="RzslzzdEL0J-uvtyFlGG-91" value="" style="edgeStyle=orthogonalEdgeStyle;rounded=1;orthogonalLoop=1;jettySize=auto;html=1;labelBackgroundColor=none;strokeColor=#0B4D6A;fontColor=default;" parent="WIyWlLk6GJQsqaUBKTNV-1" source="RzslzzdEL0J-uvtyFlGG-7" target="RzslzzdEL0J-uvtyFlGG-8" edge="1">
                    <mxGeometry relative="1" as="geometry"/>
                </mxCell>
                <mxCell id="RzslzzdEL0J-uvtyFlGG-7" value="No" style="text;html=1;strokeColor=none;fillColor=none;align=center;verticalAlign=middle;whiteSpace=wrap;rounded=1;labelBackgroundColor=none;fontColor=#EEEEEE;" parent="WIyWlLk6GJQsqaUBKTNV-1" vertex="1">
                    <mxGeometry x="-667" y="480" width="60" height="30" as="geometry"/>
                </mxCell>
                <mxCell id="RzslzzdEL0J-uvtyFlGG-95" value="" style="edgeStyle=orthogonalEdgeStyle;rounded=1;orthogonalLoop=1;jettySize=auto;html=1;entryX=0.5;entryY=1;entryDx=0;entryDy=0;endArrow=none;labelBackgroundColor=none;strokeColor=#0B4D6A;fontColor=default;" parent="WIyWlLk6GJQsqaUBKTNV-1" source="RzslzzdEL0J-uvtyFlGG-13" target="RzslzzdEL0J-uvtyFlGG-16" edge="1">
                    <mxGeometry relative="1" as="geometry">
                        <mxPoint x="-454" y="600" as="sourcePoint"/>
                        <mxPoint x="-454" y="480" as="targetPoint"/>
                    </mxGeometry>
                </mxCell>
                <mxCell id="RzslzzdEL0J-uvtyFlGG-16" value="Log in User" style="text;html=1;strokeColor=none;fillColor=none;align=center;verticalAlign=middle;whiteSpace=wrap;rounded=1;labelBackgroundColor=none;fontColor=#EEEEEE;" parent="WIyWlLk6GJQsqaUBKTNV-1" vertex="1">
                    <mxGeometry x="-487" y="480" width="120" height="30" as="geometry"/>
                </mxCell>
                <mxCell id="RzslzzdEL0J-uvtyFlGG-101" value="" style="edgeStyle=orthogonalEdgeStyle;rounded=1;orthogonalLoop=1;jettySize=auto;html=1;endArrow=none;labelBackgroundColor=none;strokeColor=#0B4D6A;fontColor=default;" parent="WIyWlLk6GJQsqaUBKTNV-1" source="RzslzzdEL0J-uvtyFlGG-2" target="RzslzzdEL0J-uvtyFlGG-10" edge="1">
                    <mxGeometry relative="1" as="geometry">
                        <mxPoint x="-580" y="430" as="sourcePoint"/>
                        <mxPoint x="-500" y="430" as="targetPoint"/>
                    </mxGeometry>
                </mxCell>
                <mxCell id="RzslzzdEL0J-uvtyFlGG-10" value="Yes" style="text;html=1;strokeColor=none;fillColor=none;align=center;verticalAlign=middle;whiteSpace=wrap;rounded=1;labelBackgroundColor=none;fontColor=#EEEEEE;" parent="WIyWlLk6GJQsqaUBKTNV-1" vertex="1">
                    <mxGeometry x="-560" y="415" width="60" height="30" as="geometry"/>
                </mxCell>
                <mxCell id="RzslzzdEL0J-uvtyFlGG-106" value="" style="edgeStyle=orthogonalEdgeStyle;rounded=1;orthogonalLoop=1;jettySize=auto;html=1;entryX=0.5;entryY=1;entryDx=0;entryDy=0;endArrow=none;labelBackgroundColor=none;strokeColor=#0B4D6A;fontColor=default;" parent="WIyWlLk6GJQsqaUBKTNV-1" source="RzslzzdEL0J-uvtyFlGG-20" target="RzslzzdEL0J-uvtyFlGG-25" edge="1">
                    <mxGeometry relative="1" as="geometry">
                        <mxPoint x="-50" y="290" as="sourcePoint"/>
                        <mxPoint x="4" y="175" as="targetPoint"/>
                    </mxGeometry>
                </mxCell>
                <mxCell id="RzslzzdEL0J-uvtyFlGG-25" value="No" style="text;html=1;strokeColor=none;fillColor=none;align=center;verticalAlign=middle;whiteSpace=wrap;rounded=1;labelBackgroundColor=none;fontColor=#EEEEEE;" parent="WIyWlLk6GJQsqaUBKTNV-1" vertex="1">
                    <mxGeometry x="-72.5" y="190" width="44" height="30" as="geometry"/>
                </mxCell>
                <mxCell id="RzslzzdEL0J-uvtyFlGG-107" value="" style="edgeStyle=orthogonalEdgeStyle;rounded=1;orthogonalLoop=1;jettySize=auto;html=1;entryX=0.5;entryY=1;entryDx=0;entryDy=0;endArrow=none;labelBackgroundColor=none;strokeColor=#0B4D6A;fontColor=default;" parent="WIyWlLk6GJQsqaUBKTNV-1" source="RzslzzdEL0J-uvtyFlGG-20" target="RzslzzdEL0J-uvtyFlGG-28" edge="1">
                    <mxGeometry relative="1" as="geometry">
                        <mxPoint x="-110" y="260" as="sourcePoint"/>
                        <mxPoint x="-180" y="165" as="targetPoint"/>
                    </mxGeometry>
                </mxCell>
                <mxCell id="RzslzzdEL0J-uvtyFlGG-28" value="Yes" style="text;html=1;strokeColor=none;fillColor=none;align=center;verticalAlign=middle;whiteSpace=wrap;rounded=1;labelBackgroundColor=none;fontColor=#EEEEEE;" parent="WIyWlLk6GJQsqaUBKTNV-1" vertex="1">
                    <mxGeometry x="-210.5" y="195" width="60" height="30" as="geometry"/>
                </mxCell>
                <mxCell id="RzslzzdEL0J-uvtyFlGG-64" value="User starts modification old template" style="ellipse;whiteSpace=wrap;html=1;labelBackgroundColor=none;fillColor=#09555B;strokeColor=#BAC8D3;fontColor=#EEEEEE;rounded=1;" parent="WIyWlLk6GJQsqaUBKTNV-1" vertex="1">
                    <mxGeometry x="-170" y="430" width="120" height="80" as="geometry"/>
                </mxCell>
            </root>
        </mxGraphModel>
    </diagram>
</mxfile>